:SAMPLES-PER-SECOND 30
:FULLY-SPECIFIED
:DEGREES
32
root  -40.0684 35.6406 0.47877 175.171 83.9564 -176.686
RightUpLeg  -35.3163 -7.19461 2.98034
RightLeg  28.4802 12.1103 1.51756
RightFoot  -1.63411 -0.400089 3.97927
RightToes  1.74622e-010 -3.18055e-015 8.94531e-016
Spine  26.909 -1.19956 -1.03121
Spine1  13.6602 -1.8902 1.63807
HEad  -28.4666 -1.86741 7.25648
LeftShoulder1  0 -2.69403e-036 -1.28585e-037
LeftArm  12.01 0.402261 -85.9278
LeftForeArm  -36.3323 -45.7487 27.1059
LeftHand  0.963486 7.01936 -0.950806
RightShoulder  -2.48481e-017 0 -8.08114e-019
RightArm  19.6663 -14.5049 83.5149
RightForeArm  -38.5519 26.183 -24.4087
RightHand  1.608 -12.1501 -8.11511
LeftUpLeg  -18.3429 -8.06545 -3.0771
LeftLeg  51.3069 -6.49587 6.88014
LeftFoot  -19.8403 -0.0967209 -0.675878
LeftToes  4.94765e-010 2.02697e-011 4.00889e-011
33
root  -39.1831 34.8749 0.675288 173.833 83.2201 -177.405
RightUpLeg  -36.7158 -6.55208 3.07949
RightLeg  24.4532 11.5622 1.11865
RightFoot  -1.54191 -0.34427 3.39752
RightToes  1.74622e-010 -3.18055e-015 8.94531e-016
Spine  31.3882 -0.976973 -1.58145
Spine1  13.0629 -2.12129 2.58934
HEad  -31.372 -1.86984 7.49848
LeftShoulder1  0 -2.69403e-036 -1.28585e-037
LeftArm  11.8184 -3.34706 -86.2162
LeftForeArm  -35.6867 -45.7688 27.166
LeftHand  0.935363 6.84023 -0.0165595
RightShoulder  -2.48481e-017 0 -8.08114e-019
RightArm  18.949 -12.2539 82.5864
RightForeArm  -37.682 26.5592 -24.7131
RightHand  1.64779 -12.2296 -8.61206
LeftUpLeg  -19.4789 -6.84741 -2.35052
LeftLeg  57.7264 -8.63223 5.53904
LeftFoot  -20.7916 -0.191913 -2.01833
LeftToes  4.94765e-010 2.02697e-011 4.00889e-011
34
root  -38.2611 33.8943 0.924844 173.966 82.2096 -176.883
RightUpLeg  -39.4422 -5.17271 2.7226
RightLeg  27.5429 8.92074 -0.352034
RightFoot  0.837196 -0.153787 1.25364
RightToes  1.74622e-010 -3.18055e-015 8.94531e-016
Spine  35.2758 -0.918323 -1.55621
Spine1  13.0074 -2.30961 3.11951
HEad  -34.6276 -2.17969 7.88413
LeftShoulder1  0 -2.69403e-036 -1.28585e-037
LeftArm  12.8713 -7.36209 -86.3656
LeftForeArm  -35.6635 -44.5784 26.4085
LeftHand  0.914557 6.73012 0.877633
RightShoulder  -2.48481e-017 0 -8.08114e-019
RightArm  18.0501 -9.6307 81.6195
RightForeArm  -36.6609 26.8965 -25.0032
RightHand  1.72714 -12.4041 -9.50522
LeftUpLeg  -21.2017 -5.86413 -1.15107
LeftLeg  65.1822 -10.7001 3.30811
LeftFoot  -21.8542 -0.301913 -3.20863
LeftToes  4.94765e-010 2.02697e-011 4.00889e-011
35
root  -37.2207 32.6777 1.19821 173.298 80.8681 -177.718
RightUpLeg  -44.012 -5.1134 2.53394
RightLeg  36.225 7.36566 -2.03211
RightFoot  4.24027 0.059325 -0.397185
RightToes  1.74622e-010 -3.18055e-015 8.94531e-016
Spine  37.9582 -1.24952 -1.49011
Spine1  13.2616 -2.53073 2.75364
HEad  -38.0305 -2.45198 8.46132
LeftShoulder1  0 -2.69403e-036 -1.28585e-037
LeftArm  14.7607 -11.6491 -86.1978
LeftForeArm  -35.3755 -42.1926 25.0088
LeftHand  0.87558 6.52227 1.94217
RightShoulder  -2.48481e-017 0 -8.08114e-019
RightArm  17.5266 -6.34543 80.7899
RightForeArm  -35.9031 26.8448 -25.0145
RightHand  1.80054 -12.5283 -10.4129
LeftUpLeg  -23.221 -5.59077 0.0314783
LeftLeg  73.033 -12.1848 0.508462
LeftFoot  -23.836 -0.467364 -4.3424
LeftToes  4.94765e-010 2.02697e-011 4.00889e-011
36
root  -36.0963 31.306 1.48311 172.332 79.3676 -179.13
RightUpLeg  -49.4326 -6.18271 2.65609
RightLeg  46.7219 7.63233 -2.99028
RightFoot  5.02759 0.227636 -1.43463
RightToes  1.74622e-010 -3.18055e-015 8.94531e-016
Spine  40.0973 -1.7784 -1.76026
Spine1  13.3029 -2.83429 1.95357
HEad  -41.4646 -2.32521 9.18852
LeftShoulder1  0 -2.69403e-036 -1.28585e-037
LeftArm  17.0297 -15.8724 -85.9116
LeftForeArm  -34.3712 -38.5096 23.1025
LeftHand  0.747397 5.89103 4.12517
RightShoulder  -2.48481e-017 0 -8.08114e-019
RightArm  17.6115 -2.44202 80.2418
RightForeArm  -35.4634 26.2313 -24.6277
RightHand  1.82469 -12.5341 -10.827
LeftUpLeg  -25.0077 -5.66814 1.21822
LeftLeg  80.7131 -12.8779 -2.38001
LeftFoot  -26.6732 -0.709927 -5.41771
LeftToes  4.94765e-010 2.02697e-011 4.00889e-011
37
root  -35.0273 29.9443 1.77266 173.629 78.1558 -178.103
RightUpLeg  -54.4235 -7.02832 3.3927
RightLeg  56.4612 8.33274 -3.48684
RightFoot  2.53628 0.457508 -3.3308
RightToes  1.74622e-010 -3.18055e-015 8.94531e-016
Spine  42.8455 -2.21932 -1.78977
Spine1  12.9038 -3.11338 1.55357
HEad  -44.8793 -1.88881 9.9368
LeftShoulder1  0 -2.69403e-036 -1.28585e-037
LeftArm  19.9911 -19.7681 -85.7832
LeftForeArm  -34.0097 -33.8333 20.9196
LeftHand  0.537002 5.06937 7.24925
RightShoulder  -2.48481e-017 0 -8.08114e-019
RightArm  18.1553 1.74206 79.9335
RightForeArm  -35.1565 25.1959 -23.9599
RightHand  1.82723 -12.5373 -10.8612
LeftUpLeg  -26.4448 -5.63236 3.03979
LeftLeg  87.9111 -12.855 -4.78824
LeftFoot  -29.028 -0.977859 -6.49053
LeftToes  4.94765e-010 2.02697e-011 4.00889e-011
38
root  -34.0508 28.6113 2.05905 177.323 77.2991 -174.42
RightUpLeg  -58.5809 -7.23882 4.81467
RightLeg  64.8835 8.74561 -4.44925
RightFoot  -0.816446 0.607458 -5.625
RightToes  1.74622e-010 -3.18055e-015 8.94531e-016
Spine  46.4188 -2.57018 -1.30334
Spine1  11.9908 -3.25778 1.65958
HEad  -48.2289 -1.4499 10.5391
LeftShoulder1  0 -2.69403e-036 -1.28585e-037
LeftArm  24.1173 -23.2911 -85.7377
LeftForeArm  -35.6831 -29.0748 18.8427
LeftHand  0.37831 4.56853 9.43039
RightShoulder  -2.48481e-017 0 -8.08114e-019
RightArm  18.9574 5.96996 79.7941
RightForeArm  -34.8381 23.9979 -23.2023
RightHand  1.8729 -12.687 -11.1407
LeftUpLeg  -27.8944 -5.69473 5.70697
LeftLeg  94.939 -12.3261 -6.71338
LeftFoot  -29.7944 -1.18747 -7.61731
LeftToes  4.94765e-010 2.02697e-011 4.00889e-011
39
root  -33.1357 27.2722 2.3263 -178.137 76.4976 -169.924
RightUpLeg  -62.3667 -7.22295 6.63679
RightLeg  72.3152 9.12176 -5.9849
RightFoot  -3.59393 0.585469 -6.99767
RightToes  1.74622e-010 -3.18055e-015 8.94531e-016
Spine  50.1389 -3.03495 -0.592774
Spine1  10.7899 -3.35276 1.84877
HEad  -51.4183 -1.0142 10.8909
LeftShoulder1  0 -2.69403e-036 -1.28585e-037
LeftArm  27.7495 -26.7006 -85.4209
LeftForeArm  -37.0728 -25.0098 16.2972
LeftHand  0.338705 4.41255 9.60842
RightShoulder  -2.48481e-017 0 -8.08114e-019
RightArm  19.8488 10.2555 79.8844
RightForeArm  -34.4228 22.8236 -22.4823
RightHand  1.95288 -12.8908 -11.8003
LeftUpLeg  -29.6096 -6.3855 8.86081
LeftLeg  101.812 -11.3545 -8.5838
LeftFoot  -29.1558 -1.28643 -8.65408
LeftToes  4.94765e-010 2.02697e-011 4.00889e-011
40
root  -32.2731 25.996 2.57027 -174.181 75.6364 -166.292
RightUpLeg  -66.1685 -7.21861 8.52058
RightLeg  78.8871 9.71921 -7.67909
RightFoot  -6.31155 0.448467 -7.48503
RightToes  1.74622e-010 -3.18055e-015 8.94531e-016
Spine  53.4097 -3.60713 -0.0193566
Spine1  9.78135 -3.52078 1.95082
HEad  -54.1651 -0.371436 11.0357
LeftShoulder1  0 -2.69403e-036 -1.28585e-037
LeftArm  17.1785 -30.7603 -84.151
LeftForeArm  -22.9152 -21.2078 7.91638
LeftHand  0.314026 4.2438 9.16364
RightShoulder  -2.48481e-017 0 -8.08114e-019
RightArm  20.8041 14.7113 80.2353
RightForeArm  -33.8965 21.6829 -21.8045
RightHand  1.98152 -12.9028 -12.2411
LeftUpLeg  -31.2986 -7.61446 12.0805
LeftLeg  107.839 -9.94916 -10.6495
LeftFoot  -28.3346 -1.32786 -9.46616
LeftToes  4.94765e-010 2.02697e-011 4.00889e-011
41
root  -31.4403 24.8681 2.8098 -171.368 74.84 -164.159
RightUpLeg  -69.8596 -7.08395 10.2359
RightLeg  84.5474 10.5284 -9.38091
RightFoot  -9.42654 0.254237 -7.76141
RightToes  1.74622e-010 -3.18055e-015 8.94531e-016
Spine  56.0363 -4.00982 0.181673
Spine1  9.19476 -3.71345 2.12367
HEad  -56.112 0.499388 11.1315
LeftShoulder1  0 -2.69403e-036 -1.28585e-037
LeftArm  0.453658 -35.3015 -82.573
LeftForeArm  -3.19092 -13.6098 -0.0812542
LeftHand  0.250342 4.00288 9.50538
RightShoulder  -2.48481e-017 0 -8.08114e-019
RightArm  21.3227 19.4262 80.6884
RightForeArm  -32.6865 20.5664 -20.6771
RightHand  1.9417 -12.7286 -12.1898
LeftUpLeg  -32.5112 -8.77972 15.162
LeftLeg  112.471 -8.22623 -12.877
LeftFoot  -28.2986 -1.40197 -10.0524
LeftToes  4.94765e-010 2.02697e-011 4.00889e-011
42
root  -30.605 23.8752 3.05433 -169.36 74.1426 -163.236
RightUpLeg  -73.302 -6.72174 11.7609
RightLeg  89.4012 11.5083 -11.0516
RightFoot  -12.505 0.0463982 -7.7779
RightToes  1.74622e-010 -3.18055e-015 8.94531e-016
Spine  57.9785 -4.13847 0.0634162
Spine1  8.89481 -3.86494 2.48948
HEad  -57.2678 1.49243 11.3161
LeftShoulder1  0 -2.69403e-036 -1.28585e-037
LeftArm  -7.57678 -39.8526 -81.7703
LeftForeArm  6.7324 -5.30064 -2.72993
LeftHand  0.236078 3.99007 9.8649
RightShoulder  -2.48481e-017 0 -8.08114e-019
RightArm  19.1675 24.3422 81.0549
RightForeArm  -28.6039 19.698 -18.0174
RightHand  1.91742 -12.6239 -12.1513
LeftUpLeg  -33.383 -9.67907 18.163
LeftLeg  115.914 -6.26859 -15.2325
LeftFoot  -28.8229 -1.48679 -10.3184
LeftToes  4.94765e-010 2.02697e-011 4.00889e-011
43
root  -29.7773 22.9722 3.28991 -167.514 73.3712 -162.745
RightUpLeg  -76.5125 -6.23545 13.2307
RightLeg  93.6208 12.6266 -12.617
RightFoot  -15.2497 -0.130122 -7.28294
RightToes  1.74622e-010 -3.18055e-015 8.94531e-016
Spine  59.3819 -4.27686 -0.0312681
Spine1  8.74531 -4.06113 2.92866
HEad  -58.0659 2.58293 11.5879
LeftShoulder1  0 -2.69403e-036 -1.28585e-037
LeftArm  -7.88225 -43.9114 -81.5537
LeftForeArm  9.82476 -0.908756 -2.62894
LeftHand  0.304564 4.21765 9.2893
RightShoulder  -2.48481e-017 0 -8.08114e-019
RightArm  14.4096 29.0452 81.4264
RightForeArm  -22.0382 18.7632 -14.2933
RightHand  1.92489 -12.6082 -12.3417
LeftUpLeg  -34.3608 -10.6565 21.2559
LeftLeg  118.641 -4.13198 -17.5759
LeftFoot  -29.0735 -1.48928 -10.1649
LeftToes  4.94765e-010 2.02697e-011 4.00889e-011
44
root  -28.9801 22.1667 3.5043 -165.825 72.3986 -162.234
RightUpLeg  -79.1959 -5.77759 14.7031
RightLeg  97.2749 13.8524 -14.151
RightFoot  -17.9642 -0.271041 -6.54837
RightToes  1.74622e-010 -3.18055e-015 8.94531e-016
Spine  60.7259 -4.71295 0.198222
Spine1  8.64078 -4.36499 3.18526
HEad  -58.8416 3.566 11.8583
LeftShoulder1  0 -2.69403e-036 -1.28585e-037
LeftArm  -7.64389 -46.947 -81.3023
LeftForeArm  13.4169 -0.583464 -1.28594
LeftHand  0.324284 4.27293 9.03082
RightShoulder  -2.48481e-017 0 -8.08114e-019
RightArm  9.19885 33.0423 81.904
RightForeArm  -15.3079 17.5153 -10.8994
RightHand  1.87362 -12.4081 -12.1813
LeftUpLeg  -35.2717 -11.9506 24.3957
LeftLeg  120.802 -2.09114 -19.5386
LeftFoot  -28.7391 -1.41293 -9.83302
LeftToes  4.94765e-010 2.02697e-011 4.00889e-011
45
root  -28.175 21.444 3.71443 -165.201 71.8175 -162.708
RightUpLeg  -81.4371 -4.90102 15.8203
RightLeg  100.536 15.2297 -15.775
RightFoot  -20.7986 -0.391354 -5.93235
RightToes  1.74622e-010 -3.18055e-015 8.94531e-016
Spine  62.041 -4.98159 0.334273
Spine1  8.23057 -4.48791 3.2617
HEad  -59.625 3.87161 12.1271
LeftShoulder1  0 -2.69403e-036 -1.28585e-037
LeftArm  -7.00171 -48.7794 -81.2473
LeftForeArm  15.9676 -0.395454 -0.461069
LeftHand  0.189605 3.88771 10.5778
RightShoulder  -2.48481e-017 0 -8.08114e-019
RightArm  4.87102 36.2263 82.2072
RightForeArm  -9.53715 16.0453 -8.31788
RightHand  1.76094 -12.0366 -11.5087
LeftUpLeg  -35.5636 -12.87 26.9535
LeftLeg  122.355 -0.441848 -20.9466
LeftFoot  -28.236 -1.34238 -9.64244
LeftToes  4.94765e-010 2.02697e-011 4.00889e-011
